<svg width="384" height="105" viewBox="0 0 384 105" fill="none" xmlns="http://www.w3.org/2000/svg">
  <path d="M20 36H58C70.1503 36 80 45.8497 80 58V58C80 70.1503 70.1503 80 58 80H20V36Z" fill="#0A6CFF"/>
  <path d="M20 36V58H44C50.6274 58 56 52.6274 56 46V46C56 39.3726 50.6274 34 44 34H22C20.8954 34 20 34.8954 20 36Z" fill="#0A6CFF"/>
  <path d="M96 80V24H122.4C130.8 24 137.267 25.9667 141.8 29.9C146.4 33.7667 148.7 39.3667 148.7 46.7C148.7 54.0333 146.4 59.6667 141.8 63.6C137.267 67.4667 130.8 69.4 122.4 69.4H110V80H96ZM110 58.2H121.2C124.667 58.2 127.233 57.3333 128.9 55.6C130.567 53.8 131.4 51.5 131.4 48.7C131.4 45.9 130.567 43.6333 128.9 41.9C127.233 40.1 124.667 39.2 121.2 39.2H110V58.2Z" fill="#13263F"/>
  <path d="M156.094 80V24H170.094V80H156.094Z" fill="#13263F"/>
  <path d="M184.318 80V39.6H171.318V24H211.318V39.6H198.318V80H184.318Z" fill="#13263F"/>
  <path d="M217.736 80V24H231.736V46H254.136V24H268.136V80H254.136V58.8H231.736V80H217.736Z" fill="#13263F"/>
  <path d="M279.06 80V24H320.26V36.8H293.06V45.2H317.46V57.2H293.06V67.2H321.06V80H279.06Z" fill="#13263F"/>
  <path d="M330.796 80V24H347.196C354.729 24 360.496 25.6333 364.496 28.9C368.562 32.1667 370.596 36.8667 370.596 43C370.596 46.9333 369.762 50.3 368.096 53.1C366.496 55.8333 364.129 57.9667 360.996 59.5L372.196 80H356.596L347.896 62.4H344.796V80H330.796ZM344.796 51.2H347.196C350.062 51.2 352.229 50.6333 353.696 49.5C355.162 48.3667 355.896 46.7333 355.896 44.6C355.896 42.4667 355.162 40.8333 353.696 39.7C352.229 38.5667 350.062 38 347.196 38H344.796V51.2Z" fill="#13263F"/>
</svg>
